<svg xmlns="http://www.w3.org/2000/svg" width="43.807" height="43.796" viewBox="0 0 43.807 43.796"><defs><style>.a{fill:#fff;}.b{fill:#f80759;}</style></defs><g transform="translate(-345.096 -726.097)"><circle class="a" cx="6" cy="6" r="6" transform="translate(361 742)"/><g transform="translate(358.515 741.801)"><path class="b" d="M8.13,6.739V3h2.84V4.065H8.84v3.9a1.42,1.42,0,1,1-.71-1.23Z" transform="translate(0)"/></g><path class="a" d="M-113.477,9727.794h7.252l7.435,5.3.244,7.436-6.094,2.864-5.729-4.814-4.875-5.485Z" transform="translate(482 -8995)"/><path class="a" d="M-113.477,9727.794h7.252l7.435,5.3.244,7.436-6.094,2.864-5.729-4.814-4.875-5.485Z" transform="translate(465 -8979)"/><path d="M37.391,6.413A21.9,21.9,0,1,0,43.807,21.9,21.929,21.929,0,0,0,37.391,6.413ZM18.031,36.725A10.953,10.953,0,0,1,7.079,25.772a1.369,1.369,0,0,1,2.738,0,8.215,8.215,0,0,0,8.214,8.215,1.369,1.369,0,0,1,0,2.738Zm0-5.48a5.466,5.466,0,0,1-5.473-5.473,1.369,1.369,0,0,1,2.738,0,2.727,2.727,0,0,0,2.735,2.735,1.369,1.369,0,0,1,0,2.738Zm7.744-5.473a5.475,5.475,0,1,1-7.743-7.743,5.6,5.6,0,0,1,7.743,0,5.473,5.473,0,0,1,0,7.743ZM29.881,19.4a1.369,1.369,0,0,1-1.369-1.369,2.73,2.73,0,0,0-2.735-2.735,1.369,1.369,0,1,1,0-2.738,5.469,5.469,0,0,1,5.473,5.473A1.369,1.369,0,0,1,29.881,19.4Zm5.479,0a1.369,1.369,0,0,1-1.369-1.369,8.212,8.212,0,0,0-8.214-8.214,1.369,1.369,0,1,1,0-2.738A10.951,10.951,0,0,1,36.728,18.028,1.369,1.369,0,0,1,35.359,19.4Z" transform="translate(345.096 726.089)"/></g></svg>