<svg xmlns="http://www.w3.org/2000/svg" width="26.663" height="19.997" viewBox="0 0 26.663 19.997"><g transform="translate(-4924 -5777.501)"><path d="M888.2-782.5h-7.721A5.213,5.213,0,0,1,875-787.915v-9.17a5.213,5.213,0,0,1,5.484-5.414H888.2a5.213,5.213,0,0,1,5.484,5.414v9.17A5.213,5.213,0,0,1,888.2-782.5ZM883-795.261a1,1,0,0,0-1,1v3.518a1,1,0,0,0,1,1,.985.985,0,0,0,.5-.138l3.015-1.76a.991.991,0,0,0,.5-.864.989.989,0,0,0-.5-.863l-3.015-1.76A.986.986,0,0,0,883-795.261Zm16.779,9.791a1.837,1.837,0,0,1-.841-.2l-1.974-1a2.164,2.164,0,0,1-1.184-1.942v-7.777a2.157,2.157,0,0,1,1.184-1.941l1.976-1a1.86,1.86,0,0,1,.84-.2,1.858,1.858,0,0,1,.99.288,1.9,1.9,0,0,1,.892,1.625v10.233a1.9,1.9,0,0,1-.892,1.625A1.874,1.874,0,0,1,899.78-785.47Z" transform="translate(4049 6580)"/></g></svg>